<?xml version="1.0" encoding="utf-8"?>
<!-- Generator: Adobe Illustrator 22.0.0, SVG Export Plug-In . SVG Version: 6.00 Build 0)  -->
<svg version="1.1" id="图层_1" xmlns="http://www.w3.org/2000/svg" xmlns:xlink="http://www.w3.org/1999/xlink" x="0px" y="0px"
	 viewBox="0 0 1702.5 173.3" style="enable-background:new 0 0 1702.5 173.3;" xml:space="preserve">
<style type="text/css">
	.st0{fill:#1B0D56;}
	.st1{fill:url(#SVGID_1_);}
	.st2{fill-rule:evenodd;clip-rule:evenodd;fill:#DDDDDD;}
</style>
<g>
	<g>
		<path class="st0" d="M242.5,74.2h-23c-0.7,0-1.2,0.5-1.2,1.2v12.3c0,0.7,0.5,1.2,1.2,1.2h20.6c1.5,0,2.8,1.2,2.8,2.8v13.1
			c0,1.5-1.2,2.8-2.8,2.8h-20.6c-0.7,0-1.2,0.5-1.2,1.2V139c0,1.5-1.2,2.8-2.8,2.8h-16.9c-1.5,0-2.8-1.2-2.8-2.8V58.3
			c0-1.5,1.2-2.8,2.8-2.8h43.8c1.5,0,2.8,1.2,2.8,2.8v13.1C245.3,73,244.1,74.2,242.5,74.2z"/>
		<path class="st0" d="M339.1,105.2c0.1,4.5-0.4,8.9-1.3,13.3c-1.3,5.7-4.5,10.9-9.4,15.6c-7,6.6-16.4,9.9-28.1,9.9
			c-11.9,0-21.2-3.4-27.9-10.1c-3.6-3.7-6.1-8.3-7.3-13.3c-1-5-1.5-10.2-1.4-15.3v-47c0-1.5,1.2-2.8,2.8-2.8l0,0h16.9
			c1.5,0,2.8,1.2,2.8,2.8l0,0v43.9c0,3.8,0.1,6.6,0.2,8.4c0.4,5.9,3.1,9.9,8,12.3c2.1,1,4.4,1.5,6.7,1.4c5.5,0,9.6-1.9,12.4-5.7
			c2.1-2.8,3.1-8.3,3.1-16.4V58.3c0-1.5,1.2-2.8,2.8-2.8c0,0,0,0,0,0h16.8c1.5,0,2.8,1.2,2.8,2.8l0,0L339.1,105.2z"/>
		<path class="st0" d="M422.2,113.2c0,14.6-6.4,24.1-19.2,28.5c-4.6,1.6-9.5,2.4-14.4,2.3c-9.9,0-19.6-2.9-27.9-8.4
			c-1.2-0.8-1.7-2.4-1-3.7l6.8-12.8c0.7-1.4,2.4-1.9,3.7-1.2c0.1,0.1,0.3,0.2,0.4,0.3c5.9,4.7,11.6,7,17.3,7c2.6,0.1,5.2-0.6,7.4-2
			c2.3-1.4,3.6-3.9,3.5-6.5c0-2.6-1.3-4.7-3.9-6.4c-1.9-1.3-5.2-2.6-9.8-3.9c-5.6-1.6-9.1-2.8-10.5-3.4c-2.1-0.9-4.1-2-5.8-3.4
			c-4.5-3.8-6.8-9.5-6.8-17.2c0-8,2.4-14.6,7.1-19.9c5.6-6.2,13-9.3,22.3-9.3c8.6,0,17,2,24.8,5.7c1.4,0.7,2,2.3,1.4,3.7
			c0,0,0,0.1-0.1,0.1L411.2,75c-0.7,1.4-2.4,1.9-3.8,1.2c-0.1,0-0.2-0.1-0.2-0.1c-3.6-2.5-7.9-3.9-12.3-4c-2.3,0-4.5,0.7-6.5,1.9
			c-2,1.1-3.2,3.3-3.2,5.6c0,2.3,1.4,4.2,4.2,5.9c1.3,0.8,5.1,2.1,11.4,3.9c7.9,2.3,13.6,5.6,17,9.9
			C420.8,102.9,422.2,107.5,422.2,113.2z"/>
		<rect x="441.5" y="55.5" class="st0" width="22.5" height="86.3"/>
		<path class="st0" d="M578.9,98.9c0.1,11.4-4.1,22.4-11.7,30.8c-8.9,10.1-20.9,15.1-36.1,15.1c-15.2,0-27.2-5-36-15.1
			c-7.6-8.4-11.8-19.5-11.7-30.8c0.1-5.6,1.1-11.2,3.2-16.5c1.9-5.3,4.8-10.2,8.4-14.4c8.9-10.1,20.9-15.1,36.1-15.1
			c15.2,0,27.2,5,36.1,15.1C574.9,76.5,579.1,87.5,578.9,98.9z M555.7,98.9c0.1-5.8-2-11.4-5.8-15.8c-8.8-10.3-24.3-11.5-34.6-2.7
			c-5.4,4.6-8.6,11.4-8.6,18.5c0,5.8,2,11.3,5.8,15.6c4.6,5.6,11.4,8.7,18.6,8.6c13.4,0.1,24.4-10.6,24.5-24
			C555.7,99,555.7,99,555.7,98.9z"/>
		<path class="st0" d="M681.7,141.8h-18.3c-0.9,0-1.7-0.4-2.2-1.1l-38.3-49c-0.4-0.5-1.2-0.6-1.7-0.2c-0.3,0.2-0.5,0.6-0.5,0.9v49.3
			h-19.7c-1.5,0-2.8-1.2-2.8-2.8V58.3c0-1.5,1.2-2.8,2.8-2.8h18.3c0.9,0,1.7,0.4,2.2,1.1l38.3,49c0.4,0.5,1.2,0.6,1.7,0.2
			c0.3-0.2,0.5-0.6,0.5-1V58.3c0-1.5,1.2-2.8,2.8-2.8h16.9c1.5,0,2.8,1.2,2.8,2.8V139C684.5,140.5,683.2,141.8,681.7,141.8z"/>
		
			<linearGradient id="SVGID_1_" gradientUnits="userSpaceOnUse" x1="50.0747" y1="165.0725" x2="131.0849" y2="-0.4674" gradientTransform="matrix(1 0 0 -1 0 176)">
			<stop  offset="0" style="stop-color:#5600DB"/>
			<stop  offset="1" style="stop-color:#21A9D5"/>
		</linearGradient>
		<path class="st1" d="M79.6,56.3C52.9,97.2,36.5,154,30.1,173.3c-3.6-36.4,15.4-86,29.3-115.3C53,58.3,18.9,60.7,0,80.2
			c0,0,10.2-31.3,69.1-40.8l0.2-0.4C115.4-28.3,150,11.9,150,11.9c-21-3.5-39.3,7-54.9,24.1c7.6-0.3,56.8-0.9,71,38
			C166.1,74,137.6,53.6,79.6,56.3z M112.9,103.2c-11.8,0-21.4,9.6-21.4,21.4s9.6,21.4,21.4,21.4s21.4-9.6,21.4-21.4l0,0
			C134.3,112.7,124.7,103.2,112.9,103.2z"/>
	</g>
</g>
<g>
	<g>
		<path class="st0" d="M902.3,96.3v-0.2c4.8-1.3,8.8-3.8,11.9-7.3c3.2-3.5,4.7-7.6,4.7-12.3c0-6.3-2.5-11.3-7.6-14.8
			c-5.1-3.6-12.4-5.4-21.8-5.4h-30.7v86.5h32.3c9.7,0,17.3-2.3,22.9-6.9c5.6-4.6,8.4-10.9,8.4-18.7c0-5.6-1.9-10.3-5.6-14
			C913.2,99.3,908.4,97.1,902.3,96.3z M877.3,70h7.8c9.7,0,14.5,3.3,14.5,9.9c0,3.6-1.2,6.4-3.6,8.4c-2.4,2-5.7,3-9.9,3h-8.8V70z
			 M899.2,125.7c-2.6,2.2-6.3,3.2-10.9,3.2h-10.9v-23.7h10.8c4.8,0,8.5,1,11.1,3c2.6,2,3.9,4.8,3.9,8.5
			C903.1,120.6,901.8,123.6,899.2,125.7z M935.4,142.7h18V51.3h-18V142.7z M1001.4,79.5c-10.3,0-18.4,2.9-24.5,8.7
			c-6.1,5.8-9.1,13.8-9.1,23.9c0,9.9,2.9,17.7,8.8,23.5c5.9,5.7,13.9,8.6,23.9,8.6c10.2,0,18.3-3,24.3-9c6-6,9-14,9-24.2
			c0-9.6-2.9-17.3-8.8-23C1019.2,82.3,1011.3,79.5,1001.4,79.5z M1001.1,130.4c-10,0-15.1-6.2-15.1-18.5c0-5.9,1.3-10.5,3.9-13.7
			c2.6-3.2,6.3-4.9,11-4.9c9.7,0,14.6,6,14.6,18.1C1015.5,124,1010.7,130.4,1001.1,130.4z M1055.7,88.5c-6.3,6-9.4,14.3-9.4,24.8
			c0,9.1,2.9,16.5,8.7,22.3c5.8,5.7,13.4,8.6,22.8,8.6c8,0,14.1-1.3,18.4-3.8v-14.6c-4.6,3.1-9.3,4.6-14.1,4.6
			c-5.4,0-9.7-1.6-12.9-4.9c-3.2-3.3-4.7-7.7-4.7-13.4c0-5.8,1.7-10.4,5-13.8c3.3-3.3,7.7-5,13.3-5c4.9,0,9.4,1.5,13.5,4.5V82.4
			c-3.4-1.9-8.6-2.9-15.6-2.9C1070.3,79.5,1062,82.5,1055.7,88.5z M1166.2,81h-21.5l-19.3,28.5h-0.2V51.3h-18v91.4h18v-30.5h0.2
			l20.5,30.5h21.9l-24.6-32.6L1166.2,81z M1234.5,106.7h28.6v-15h-28.6V71.3h30.8V56.2h-49.2v86.5h51.2v-15.1h-32.8V106.7z M1317,81
			l-9.4,17.7c-1.3,2.6-2.2,4.5-2.6,5.7h-0.2c-0.8-2.1-1.6-4-2.5-5.7l-9.2-17.7h-20.9l19.6,31l-20.9,30.7h20.7l9.4-17.2
			c1-1.8,1.8-3.6,2.5-5.4h0.2c0.5,1.3,1.4,3.2,2.6,5.5l9.2,17h20.8l-20.3-31.6l20.4-30.1H1317z M1381.2,79.5
			c-8.6,0-15.3,3.6-20,10.9h-0.2V81h-18v90.1h18v-35.8h0.2c3.9,6,9.6,8.9,17.2,8.9c8.3,0,15.1-3.1,20.2-9.3s7.7-14.5,7.7-24.8
			c0-9.5-2.2-16.9-6.6-22.4C1395.2,82.2,1389.1,79.5,1381.2,79.5z M1384,125.1c-2.5,3.5-6,5.2-10.5,5.2c-3.8,0-6.9-1.4-9.3-4.2
			c-2.4-2.8-3.6-6.4-3.6-10.8V110c0-4.9,1.3-8.9,3.9-12.1c2.6-3.1,5.9-4.7,10-4.7c8.8,0,13.2,5.7,13.2,17
			C1387.8,116.7,1386.6,121.6,1384,125.1z M1421.2,142.7h18V51.3h-18V142.7z M1487.2,79.5c-10.3,0-18.4,2.9-24.5,8.7
			s-9.1,13.8-9.1,23.9c0,9.9,2.9,17.7,8.8,23.5c5.9,5.7,13.9,8.6,23.9,8.6c10.2,0,18.3-3,24.3-9c6-6,9-14,9-24.2
			c0-9.6-2.9-17.3-8.8-23C1505,82.3,1497.1,79.5,1487.2,79.5z M1486.9,130.4c-10,0-15.1-6.2-15.1-18.5c0-5.9,1.3-10.5,3.9-13.7
			c2.6-3.2,6.3-4.9,11-4.9c9.7,0,14.6,6,14.6,18.1C1501.3,124,1496.5,130.4,1486.9,130.4z M1554.1,92.6h-0.2V81h-18v61.7h18V113
			c0-5.5,1.2-9.8,3.6-12.9c2.4-3.1,5.6-4.7,9.7-4.7c3.1,0,5.8,0.6,8,1.9V80.6c-1.1-0.5-2.7-0.7-4.9-0.7
			C1562.5,79.9,1557.1,84.1,1554.1,92.6z M1612.7,79.5c-8.8,0-16.1,3.1-21.9,9.2c-5.8,6.2-8.7,14.2-8.7,24c0,9.9,2.7,17.6,8.2,23.2
			c5.5,5.5,13.1,8.3,22.9,8.3c9.1,0,16.5-1.6,22.1-4.7v-13.2c-5.2,3.3-11.2,5-18,5c-10.9,0-16.7-4.8-17.3-14.3h40.6v-7.6
			c0-9.3-2.5-16.5-7.4-21.9C1628.3,82.1,1621.5,79.5,1612.7,79.5z M1600,105.6c0.6-4.2,2.1-7.5,4.5-10c2.4-2.5,5.1-3.8,8.2-3.8
			c7.5,0,11.2,4.6,11.2,13.8H1600z M1684.6,79.9c-7.9,0-13.3,4.2-16.2,12.7h-0.2V81h-18v61.7h18V113c0-5.5,1.2-9.8,3.6-12.9
			c2.4-3.1,5.6-4.7,9.7-4.7c3.1,0,5.8,0.6,8,1.9V80.6C1688.4,80.1,1686.7,79.9,1684.6,79.9z"/>
	</g>
</g>
<path class="st2" d="M774.5,149.4h-5.5v-116h5.5V149.4z"/>
</svg>
