<?xml version="1.0" encoding="utf-8"?>
<!-- Generator: Adobe Illustrator 22.0.0, SVG Export Plug-In . SVG Version: 6.00 Build 0)  -->
<svg version="1.1" id="图层_1" xmlns="http://www.w3.org/2000/svg" xmlns:xlink="http://www.w3.org/1999/xlink" x="0px" y="0px"
	 viewBox="0 0 205.9 200" style="enable-background:new 0 0 205.9 200;" xml:space="preserve">
<style type="text/css">
	.st0{fill:#666666;}
</style>
<path class="st0" d="M102.9,0C47.7,0,2.9,45.9,2.9,102.5c0,45.3,28.6,83.7,68.4,97.3c5,1,6.8-2.2,6.8-4.9c0-2.4-0.1-8.9-0.1-17.4
	c-27.8,6.2-33.7-13.8-33.7-13.8c-4.6-11.8-11.1-15-11.1-15c-9.1-6.4,0.7-6.2,0.7-6.2c10,0.7,15.3,10.6,15.3,10.6
	c8.9,15.7,23.4,11.1,29.1,8.5c0.9-6.6,3.5-11.2,6.3-13.7c-22.2-2.6-45.5-11.4-45.5-50.7c0-11.2,3.9-20.3,10.3-27.5
	c-1.1-2.6-4.5-13,0.9-27.1c0,0,8.4-2.8,27.5,10.5c8.1-2.3,16.5-3.4,25-3.5c8.5,0.1,17,1.2,25,3.5c19-13.3,27.4-10.5,27.4-10.5
	c5.4,14.1,2,24.5,1,27.1c6.4,7.2,10.2,16.3,10.2,27.5c0,39.4-23.4,48.1-45.6,50.6c3.5,3.1,6.7,9.4,6.7,19c0,13.7-0.1,24.7-0.1,28.1
	c0,2.7,1.7,5.9,6.9,4.9c40-13.5,68.6-51.9,68.6-97.1C202.9,45.9,158.2,0,102.9,0"/>
</svg>
