<?xml version="1.0" encoding="utf-8"?>
<!-- Generator: Adobe Illustrator 22.0.0, SVG Export Plug-In . SVG Version: 6.00 Build 0)  -->
<svg version="1.1" id="图层_1" xmlns="http://www.w3.org/2000/svg" xmlns:xlink="http://www.w3.org/1999/xlink" x="0px" y="0px"
	 viewBox="0 0 18 18" style="enable-background:new 0 0 18 18;" xml:space="preserve">
<style type="text/css">
	.st0{fill:#999899;}
</style>
<g>
	<g>
		<path class="st0" d="M8.4,16v-1.3c-0.8,0-1.8-0.2-3-0.4v0c-0.3,0-0.5-0.3-0.5-0.6c0-0.3,0.3-0.6,0.6-0.6c0.1,0,0.1,0,0.2,0
			c1.1,0.2,2,0.3,2.8,0.4V9.4C6.8,8.6,5.2,7.8,5.2,6c0-2,1.2-2.7,3.2-2.8V1.9c0-0.3,0.3-0.5,0.6-0.5C4.8,1.4,1.4,4.8,1.4,9
			c0,4.2,3.4,7.6,7.6,7.6C8.6,16.6,8.4,16.3,8.4,16z M6.3,6.1c0,0.9,0.9,1.5,2,2V4.4C7.1,4.5,6.3,4.9,6.3,6.1z M9.6,10v3.5
			c1.5-0.1,2-0.7,2-1.4C11.6,11.2,10.6,10.5,9.6,10z M9,1.4C9,1.4,9,1.4,9,1.4c0.3,0,0.5,0.2,0.6,0.5v1.3c0.8,0,1.7,0.1,2.6,0.2
			c0.3,0,0.5,0.3,0.5,0.6c0,0.3-0.3,0.6-0.6,0.6h0c-0.9-0.1-1.7-0.2-2.5-0.2v4.2c1.6,0.8,3.2,1.6,3.2,3.5c0,1.3-0.8,2.5-3.2,2.6V16
			c0,0.3-0.3,0.6-0.6,0.6c0,0,0,0,0,0c4.2,0,7.6-3.4,7.6-7.6C16.6,4.8,13.2,1.4,9,1.4z"/>
	</g>
</g>
</svg>
