<?xml version="1.0" encoding="utf-8"?>
<!-- Generator: Adobe Illustrator 22.0.0, SVG Export Plug-In . SVG Version: 6.00 Build 0)  -->
<svg version="1.1" id="图层_1" xmlns="http://www.w3.org/2000/svg" xmlns:xlink="http://www.w3.org/1999/xlink" x="0px" y="0px"
	 viewBox="0 0 18 18" style="enable-background:new 0 0 18 18;" xml:space="preserve">
<style type="text/css">
	.st0{fill:#999899;}
</style>
<path class="st0" d="M9,1.5C4.9,1.5,1.5,4.9,1.5,9s3.4,7.5,7.5,7.5c4.1,0,7.5-3.4,7.5-7.5S13.1,1.5,9,1.5L9,1.5z M14,11.8
	c-0.1,0.3-0.4,0.4-0.7,0.4c-0.1,0-0.2,0-0.3,0l-4.3-1.7c-0.3-0.1-0.4-0.4-0.4-0.7V5c0-0.4,0.3-0.7,0.7-0.7S9.7,4.6,9.7,5v4.4
	l3.9,1.5C13.9,11.1,14.1,11.5,14,11.8L14,11.8z M14,11.8"/>
</svg>
