<?xml version="1.0" encoding="utf-8"?>
<!-- Generator: Adobe Illustrator 22.0.0, SVG Export Plug-In . SVG Version: 6.00 Build 0)  -->
<svg version="1.1" id="图层_1" xmlns="http://www.w3.org/2000/svg" xmlns:xlink="http://www.w3.org/1999/xlink" x="0px" y="0px"
	 viewBox="0 0 684.5 173.3" style="enable-background:new 0 0 684.5 173.3;" xml:space="preserve">
<style type="text/css">
	.st0{fill:#999999;}
</style>
<g>
	<g>
		<path class="st0" d="M242.5,74.2h-23c-0.7,0-1.2,0.5-1.2,1.2v12.3c0,0.7,0.5,1.2,1.2,1.2h20.6c1.5,0,2.8,1.2,2.8,2.8v13.1
			c0,1.5-1.2,2.8-2.8,2.8h-20.6c-0.7,0-1.2,0.5-1.2,1.2V139c0,1.5-1.2,2.8-2.8,2.8h-16.9c-1.5,0-2.8-1.2-2.8-2.8V58.3
			c0-1.5,1.2-2.8,2.8-2.8h43.8c1.5,0,2.8,1.2,2.8,2.8v13.1C245.3,73,244.1,74.2,242.5,74.2z"/>
		<path class="st0" d="M339.1,105.2c0.1,4.5-0.4,8.9-1.3,13.3c-1.3,5.7-4.5,10.9-9.4,15.6c-7,6.6-16.4,9.9-28.1,9.9
			c-11.9,0-21.2-3.4-27.9-10.1c-3.6-3.7-6.1-8.3-7.3-13.3c-1-5-1.5-10.2-1.4-15.3v-47c0-1.5,1.2-2.8,2.8-2.8l0,0h16.9
			c1.5,0,2.8,1.2,2.8,2.8l0,0v43.9c0,3.8,0.1,6.6,0.2,8.4c0.4,5.9,3.1,9.9,8,12.3c2.1,1,4.4,1.5,6.7,1.4c5.5,0,9.6-1.9,12.4-5.7
			c2.1-2.8,3.1-8.3,3.1-16.4V58.3c0-1.5,1.2-2.8,2.8-2.8c0,0,0,0,0,0h16.8c1.5,0,2.8,1.2,2.8,2.8l0,0L339.1,105.2z"/>
		<path class="st0" d="M422.2,113.2c0,14.6-6.4,24.1-19.2,28.5c-4.6,1.6-9.5,2.4-14.4,2.3c-9.9,0-19.6-2.9-27.9-8.4
			c-1.2-0.8-1.7-2.4-1-3.7l6.8-12.8c0.7-1.4,2.4-1.9,3.7-1.2c0.1,0.1,0.3,0.2,0.4,0.3c5.9,4.7,11.6,7,17.3,7c2.6,0.1,5.2-0.6,7.4-2
			c2.3-1.4,3.6-3.9,3.5-6.5c0-2.6-1.3-4.7-3.9-6.4c-1.9-1.3-5.2-2.6-9.8-3.9c-5.6-1.6-9.1-2.8-10.5-3.4c-2.1-0.9-4.1-2-5.8-3.4
			c-4.5-3.8-6.8-9.5-6.8-17.2c0-8,2.4-14.6,7.1-19.9c5.6-6.2,13-9.3,22.3-9.3c8.6,0,17,2,24.8,5.7c1.4,0.7,2,2.3,1.4,3.7
			c0,0,0,0.1-0.1,0.1L411.2,75c-0.7,1.4-2.4,1.9-3.8,1.2c-0.1,0-0.2-0.1-0.2-0.1c-3.6-2.5-7.9-3.9-12.3-4c-2.3,0-4.5,0.7-6.5,1.9
			c-2,1.1-3.2,3.3-3.2,5.6c0,2.3,1.4,4.2,4.2,5.9c1.3,0.8,5.1,2.1,11.4,3.9c7.9,2.3,13.6,5.6,17,9.9
			C420.8,102.9,422.2,107.5,422.2,113.2z"/>
		<rect x="441.5" y="55.5" class="st0" width="22.5" height="86.3"/>
		<path class="st0" d="M578.9,98.9c0.1,11.4-4.1,22.4-11.7,30.8c-8.9,10.1-20.9,15.1-36.1,15.1c-15.2,0-27.2-5-36-15.1
			c-7.6-8.4-11.8-19.5-11.7-30.8c0.1-5.6,1.1-11.2,3.2-16.5c1.9-5.3,4.8-10.2,8.4-14.4c8.9-10.1,20.9-15.1,36.1-15.1
			c15.2,0,27.2,5,36.1,15.1C574.9,76.5,579.1,87.5,578.9,98.9z M555.7,98.9c0.1-5.8-2-11.4-5.8-15.8c-8.8-10.3-24.3-11.5-34.6-2.7
			c-5.4,4.6-8.6,11.4-8.6,18.5c0,5.8,2,11.3,5.8,15.6c4.6,5.6,11.4,8.7,18.6,8.6c13.4,0.1,24.4-10.6,24.5-24
			C555.7,99,555.7,99,555.7,98.9z"/>
		<path class="st0" d="M681.7,141.8h-18.3c-0.9,0-1.7-0.4-2.2-1.1l-38.3-49c-0.4-0.5-1.2-0.6-1.7-0.2c-0.3,0.2-0.5,0.6-0.5,0.9v49.3
			h-19.7c-1.5,0-2.8-1.2-2.8-2.8V58.3c0-1.5,1.2-2.8,2.8-2.8h18.3c0.9,0,1.7,0.4,2.2,1.1l38.3,49c0.4,0.5,1.2,0.6,1.7,0.2
			c0.3-0.2,0.5-0.6,0.5-1V58.3c0-1.5,1.2-2.8,2.8-2.8h16.9c1.5,0,2.8,1.2,2.8,2.8V139C684.5,140.5,683.2,141.8,681.7,141.8z"/>
		<path class="st0" d="M79.6,56.3C52.9,97.2,36.5,154,30.1,173.3c-3.6-36.4,15.4-86,29.3-115.3C53,58.3,18.9,60.7,0,80.2
			c0,0,10.2-31.3,69.1-40.8l0.2-0.4C115.4-28.3,150,11.9,150,11.9c-21-3.5-39.3,7-54.9,24.1c7.6-0.3,56.8-0.9,71,38
			C166.1,74,137.6,53.6,79.6,56.3z M112.9,103.2c-11.8,0-21.4,9.6-21.4,21.4s9.6,21.4,21.4,21.4s21.4-9.6,21.4-21.4l0,0
			C134.3,112.7,124.7,103.2,112.9,103.2z"/>
	</g>
</g>
</svg>
